<mxfile host="65bd71144e">
    <diagram id="aEOKyE4XpbDk6hD6zkL8" name="Page-1">
        <mxGraphModel dx="2916" dy="787" grid="1" gridSize="10" guides="1" tooltips="1" connect="1" arrows="1" fold="1" page="1" pageScale="1" pageWidth="850" pageHeight="1400" background="#1A1A1A" math="0" shadow="0">
            <root>
                <mxCell id="0"/>
                <mxCell id="1" parent="0"/>
                <mxCell id="7" style="edgeStyle=none;html=1;entryX=0.5;entryY=0;entryDx=0;entryDy=0;rounded=1;fillColor=#008a00;strokeColor=#005700;strokeWidth=3;labelBackgroundColor=none;fontSize=18;fontColor=#FFFFFF;" parent="1" source="2" target="3" edge="1">
                    <mxGeometry relative="1" as="geometry">
                        <Array as="points">
                            <mxPoint x="-567.11" y="660"/>
                        </Array>
                    </mxGeometry>
                </mxCell>
                <mxCell id="2" value="Vous êtes dans votre appartement et il y a une panne de courant" style="rounded=1;whiteSpace=wrap;html=1;fillColor=#6a00ff;fontColor=#FFFFFF;strokeColor=#3700CC;labelBackgroundColor=none;fontSize=18;" parent="1" vertex="1">
                    <mxGeometry x="-667.61" y="550" width="200" height="90" as="geometry"/>
                </mxCell>
                <mxCell id="9" style="edgeStyle=none;html=1;rounded=1;fillColor=#008a00;strokeColor=#005700;strokeWidth=3;labelBackgroundColor=none;fontSize=18;fontColor=#FFFFFF;" parent="1" source="3" target="5" edge="1">
                    <mxGeometry relative="1" as="geometry"/>
                </mxCell>
                <mxCell id="12" value="Chercher une bougie" style="edgeLabel;html=1;align=center;verticalAlign=middle;resizable=0;points=[];rounded=1;labelBackgroundColor=none;fontSize=18;fontColor=#FFFFFF;" parent="9" vertex="1" connectable="0">
                    <mxGeometry x="-0.3381" y="-1" relative="1" as="geometry">
                        <mxPoint as="offset"/>
                    </mxGeometry>
                </mxCell>
                <mxCell id="16" style="edgeStyle=orthogonalEdgeStyle;html=1;fillColor=#008a00;strokeColor=#005700;strokeWidth=3;labelBackgroundColor=none;fontSize=18;fontColor=#FFFFFF;" parent="1" source="3" target="4" edge="1">
                    <mxGeometry relative="1" as="geometry"/>
                </mxCell>
                <mxCell id="17" value="Sortir dehors" style="edgeLabel;html=1;align=center;verticalAlign=middle;resizable=0;points=[];labelBackgroundColor=none;fontSize=18;fontColor=#FFFFFF;" parent="16" vertex="1" connectable="0">
                    <mxGeometry x="-0.2279" y="3" relative="1" as="geometry">
                        <mxPoint x="-14" y="-3" as="offset"/>
                    </mxGeometry>
                </mxCell>
                <mxCell id="3" value="Il fait noir et &lt;br&gt;la pile de votre téléphone est déchargée" style="rhombus;whiteSpace=wrap;html=1;rounded=1;labelBackgroundColor=none;fontSize=18;fontColor=#FFFFFF;fillColor=#4D4D4D;strokeColor=none;" parent="1" vertex="1">
                    <mxGeometry x="-667.61" y="670" width="200" height="200" as="geometry"/>
                </mxCell>
                <mxCell id="23" style="edgeStyle=orthogonalEdgeStyle;html=1;entryX=0.5;entryY=0;entryDx=0;entryDy=0;fillColor=#008a00;strokeColor=#005700;strokeWidth=3;labelBackgroundColor=none;fontSize=18;fontColor=#FFFFFF;" parent="1" source="4" target="22" edge="1">
                    <mxGeometry relative="1" as="geometry"/>
                </mxCell>
                <mxCell id="24" value="Aller au dépanneur" style="edgeLabel;html=1;align=center;verticalAlign=middle;resizable=0;points=[];labelBackgroundColor=none;fontSize=18;fontColor=#FFFFFF;" parent="23" vertex="1" connectable="0">
                    <mxGeometry x="-0.24" y="-2" relative="1" as="geometry">
                        <mxPoint as="offset"/>
                    </mxGeometry>
                </mxCell>
                <mxCell id="4" value="Il pleut et il fait froid" style="rounded=1;whiteSpace=wrap;html=1;fillColor=#6d8764;fontColor=#FFFFFF;strokeColor=#3A5431;labelBackgroundColor=none;fontSize=18;" parent="1" vertex="1">
                    <mxGeometry x="-1095.1100000000001" y="725" width="200" height="90" as="geometry"/>
                </mxCell>
                <mxCell id="46" style="edgeStyle=orthogonalEdgeStyle;html=1;fillColor=#0050ef;strokeColor=#001DBC;strokeWidth=3;labelBackgroundColor=none;fontSize=18;fontColor=#FFFFFF;" parent="1" source="5" target="25" edge="1">
                    <mxGeometry relative="1" as="geometry"/>
                </mxCell>
                <mxCell id="47" value="Appeler votre chat" style="edgeLabel;html=1;align=center;verticalAlign=middle;resizable=0;points=[];labelBackgroundColor=none;fontSize=18;fontColor=#FFFFFF;" parent="46" vertex="1" connectable="0">
                    <mxGeometry x="-0.2727" relative="1" as="geometry">
                        <mxPoint y="14" as="offset"/>
                    </mxGeometry>
                </mxCell>
                <mxCell id="5" value="Vous ne voyez rien" style="rounded=1;whiteSpace=wrap;html=1;fillColor=#6d8764;strokeColor=#3A5431;fontColor=#FFFFFF;labelBackgroundColor=none;fontSize=18;" parent="1" vertex="1">
                    <mxGeometry x="-667.61" y="925" width="200" height="90" as="geometry"/>
                </mxCell>
                <mxCell id="29" style="edgeStyle=orthogonalEdgeStyle;html=1;entryX=0;entryY=0.5;entryDx=0;entryDy=0;fillColor=#a20025;strokeColor=#6F0000;strokeWidth=3;labelBackgroundColor=none;fontSize=18;fontColor=#FFFFFF;" parent="1" source="22" target="2" edge="1">
                    <mxGeometry relative="1" as="geometry">
                        <Array as="points">
                            <mxPoint x="-1445" y="980"/>
                            <mxPoint x="-1445" y="595"/>
                        </Array>
                    </mxGeometry>
                </mxCell>
                <mxCell id="30" value="Retourner à &lt;br&gt;l'appartement" style="edgeLabel;html=1;align=center;verticalAlign=middle;resizable=0;points=[];labelBackgroundColor=none;fontSize=18;fontColor=#FFFFFF;" parent="29" vertex="1" connectable="0">
                    <mxGeometry x="-0.7734" y="1" relative="1" as="geometry">
                        <mxPoint x="-7" y="-1" as="offset"/>
                    </mxGeometry>
                </mxCell>
                <mxCell id="32" style="edgeStyle=orthogonalEdgeStyle;html=1;fillColor=#008a00;strokeColor=#005700;strokeWidth=3;labelBackgroundColor=none;fontSize=18;fontColor=#FFFFFF;" parent="1" source="22" target="31" edge="1">
                    <mxGeometry relative="1" as="geometry"/>
                </mxCell>
                <mxCell id="33" value="Continuer son chemin" style="edgeLabel;html=1;align=center;verticalAlign=middle;resizable=0;points=[];labelBackgroundColor=none;fontSize=18;fontColor=#FFFFFF;" parent="32" vertex="1" connectable="0">
                    <mxGeometry x="-0.25" relative="1" as="geometry">
                        <mxPoint as="offset"/>
                    </mxGeometry>
                </mxCell>
                <mxCell id="22" value="Le dépanneur &lt;br style=&quot;font-size: 18px;&quot;&gt;est fermé &lt;br&gt;puisqu'il n'y a plus&lt;br style=&quot;font-size: 18px;&quot;&gt;d'électricité" style="rhombus;whiteSpace=wrap;html=1;rounded=1;labelBackgroundColor=none;fontSize=18;fontColor=#FFFFFF;fillColor=#4D4D4D;strokeColor=none;" parent="1" vertex="1">
                    <mxGeometry x="-1095.1100000000001" y="880" width="200" height="200" as="geometry"/>
                </mxCell>
                <mxCell id="49" style="edgeStyle=orthogonalEdgeStyle;html=1;entryX=1;entryY=0.5;entryDx=0;entryDy=0;fillColor=#a20025;strokeColor=#6F0000;strokeWidth=3;labelBackgroundColor=none;fontSize=18;" parent="1" source="25" target="2" edge="1">
                    <mxGeometry relative="1" as="geometry">
                        <Array as="points">
                            <mxPoint x="-230" y="1190"/>
                            <mxPoint x="-230" y="595"/>
                        </Array>
                    </mxGeometry>
                </mxCell>
                <mxCell id="50" value="Aller le voir" style="edgeLabel;html=1;align=center;verticalAlign=middle;resizable=0;points=[];labelBackgroundColor=none;fontSize=18;fontColor=#FFFFFF;" parent="49" vertex="1" connectable="0">
                    <mxGeometry x="-0.8758" y="-1" relative="1" as="geometry">
                        <mxPoint x="51" y="-1" as="offset"/>
                    </mxGeometry>
                </mxCell>
                <mxCell id="52" style="edgeStyle=orthogonalEdgeStyle;html=1;fillColor=#0050ef;strokeColor=#001DBC;strokeWidth=3;labelBackgroundColor=none;fontSize=18;fontColor=#FFFFFF;" parent="1" source="25" target="51" edge="1">
                    <mxGeometry relative="1" as="geometry"/>
                </mxCell>
                <mxCell id="53" value="L'appeler de nouveau" style="edgeLabel;html=1;align=center;verticalAlign=middle;resizable=0;points=[];labelBackgroundColor=none;fontSize=18;fontColor=#FFFFFF;" parent="52" vertex="1" connectable="0">
                    <mxGeometry x="-0.75" relative="1" as="geometry">
                        <mxPoint x="4" y="10" as="offset"/>
                    </mxGeometry>
                </mxCell>
                <mxCell id="25" value="Votre chat miaule&lt;br style=&quot;font-size: 18px;&quot;&gt;dans le salon" style="rhombus;whiteSpace=wrap;html=1;rounded=1;labelBackgroundColor=none;fontSize=18;fontColor=#FFFFFF;fillColor=#4D4D4D;strokeColor=none;" parent="1" vertex="1">
                    <mxGeometry x="-667.61" y="1090" width="200" height="200" as="geometry"/>
                </mxCell>
                <mxCell id="41" style="edgeStyle=orthogonalEdgeStyle;html=1;entryX=0.5;entryY=0;entryDx=0;entryDy=0;fillColor=#008a00;strokeColor=#005700;strokeWidth=3;labelBackgroundColor=none;fontSize=18;fontColor=#FFFFFF;" parent="1" source="26" target="40" edge="1">
                    <mxGeometry relative="1" as="geometry"/>
                </mxCell>
                <mxCell id="42" value="L'écouter" style="edgeLabel;html=1;align=center;verticalAlign=middle;resizable=0;points=[];labelBackgroundColor=none;fontSize=18;fontColor=#FFFFFF;" parent="41" vertex="1" connectable="0">
                    <mxGeometry x="-0.319" relative="1" as="geometry">
                        <mxPoint as="offset"/>
                    </mxGeometry>
                </mxCell>
                <mxCell id="26" value="Il semble perdu et &lt;br&gt;veut vous parler" style="rhombus;whiteSpace=wrap;html=1;rounded=1;labelBackgroundColor=none;fontSize=18;fontColor=#FFFFFF;fillColor=#4D4D4D;strokeColor=none;" parent="1" vertex="1">
                    <mxGeometry x="-1095.1100000000001" y="1290" width="200" height="200" as="geometry"/>
                </mxCell>
                <mxCell id="36" style="edgeStyle=orthogonalEdgeStyle;html=1;entryX=0.5;entryY=0;entryDx=0;entryDy=0;fillColor=#008a00;strokeColor=#005700;strokeWidth=3;labelBackgroundColor=none;fontSize=18;fontColor=#FFFFFF;" parent="1" source="31" target="26" edge="1">
                    <mxGeometry relative="1" as="geometry"/>
                </mxCell>
                <mxCell id="31" value="La tempête s'intensifie et un homme louche s'approche de vous" style="rounded=1;whiteSpace=wrap;html=1;fillColor=#6d8764;strokeColor=#3A5431;fontColor=#FFFFFF;labelBackgroundColor=none;fontSize=18;" parent="1" vertex="1">
                    <mxGeometry x="-1095.1100000000001" y="1140" width="200" height="90" as="geometry"/>
                </mxCell>
                <mxCell id="81" style="edgeStyle=orthogonalEdgeStyle;html=1;fillColor=#f0a30a;strokeColor=#BD7000;strokeWidth=3;exitX=0.5;exitY=1;exitDx=0;exitDy=0;labelBackgroundColor=none;fontSize=18;fontColor=#FFFFFF;entryX=0;entryY=0.5;entryDx=0;entryDy=0;" parent="1" source="127" target="2" edge="1">
                    <mxGeometry relative="1" as="geometry">
                        <Array as="points">
                            <mxPoint x="-995" y="1930"/>
                            <mxPoint x="-1445" y="1930"/>
                            <mxPoint x="-1445" y="595"/>
                        </Array>
                        <mxPoint x="-1025.1100000000001" y="1900" as="sourcePoint"/>
                        <mxPoint x="-775.11" y="585" as="targetPoint"/>
                    </mxGeometry>
                </mxCell>
                <mxCell id="82" value="MAUVAISE FIN:&lt;br&gt;Le croire et rentrer&lt;br style=&quot;font-size: 18px;&quot;&gt;(l'homme vous donne &lt;br&gt;son briquet = clé)" style="edgeLabel;html=1;align=center;verticalAlign=middle;resizable=0;points=[];labelBackgroundColor=none;fontSize=18;fontColor=#FFFFFF;" parent="81" vertex="1" connectable="0">
                    <mxGeometry x="-0.621" y="-2" relative="1" as="geometry">
                        <mxPoint x="153" y="2" as="offset"/>
                    </mxGeometry>
                </mxCell>
                <mxCell id="67" style="edgeStyle=orthogonalEdgeStyle;html=1;entryX=0;entryY=0.5;entryDx=0;entryDy=0;fillColor=#0050ef;strokeColor=#001DBC;strokeWidth=3;exitX=0;exitY=0.5;exitDx=0;exitDy=0;labelBackgroundColor=none;fontSize=18;fontColor=#FFFFFF;" parent="1" source="127" target="2" edge="1">
                    <mxGeometry relative="1" as="geometry">
                        <Array as="points">
                            <mxPoint x="-1445" y="1765"/>
                            <mxPoint x="-1445" y="595"/>
                        </Array>
                    </mxGeometry>
                </mxCell>
                <mxCell id="131" style="edgeStyle=none;html=1;entryX=0.5;entryY=0;entryDx=0;entryDy=0;fillColor=#008a00;strokeColor=#005700;strokeWidth=3;labelBackgroundColor=none;fontSize=18;fontColor=#FFFFFF;" parent="1" source="40" target="127" edge="1">
                    <mxGeometry relative="1" as="geometry"/>
                </mxCell>
                <mxCell id="40" value="L'homme fume une cigarette et vous dit que c'est la fin du monde" style="rounded=1;whiteSpace=wrap;html=1;fillColor=#008a00;strokeColor=#005700;fontColor=#FFFFFF;labelBackgroundColor=none;fontSize=18;" parent="1" vertex="1">
                    <mxGeometry x="-1095.1100000000001" y="1540" width="200" height="90" as="geometry"/>
                </mxCell>
                <mxCell id="55" style="edgeStyle=orthogonalEdgeStyle;html=1;entryX=0.5;entryY=0;entryDx=0;entryDy=0;fillColor=#0050ef;strokeColor=#001DBC;strokeWidth=3;labelBackgroundColor=none;fontSize=18;fontColor=#FFFFFF;" parent="1" source="51" target="54" edge="1">
                    <mxGeometry relative="1" as="geometry"/>
                </mxCell>
                <mxCell id="51" value="Votre chat saute et s''approche en courant dans le noir&amp;nbsp;" style="rounded=1;whiteSpace=wrap;html=1;fillColor=#6d8764;strokeColor=#3A5431;fontColor=#FFFFFF;labelBackgroundColor=none;fontSize=18;" parent="1" vertex="1">
                    <mxGeometry x="-667.61" y="1345" width="200" height="90" as="geometry"/>
                </mxCell>
                <mxCell id="56" style="edgeStyle=orthogonalEdgeStyle;html=1;fillColor=#a20025;strokeColor=#6F0000;strokeWidth=3;labelBackgroundColor=none;fontSize=18;" parent="1" source="54" target="2" edge="1">
                    <mxGeometry relative="1" as="geometry">
                        <Array as="points">
                            <mxPoint x="-230" y="1565"/>
                            <mxPoint x="-230" y="595"/>
                        </Array>
                        <mxPoint x="-425.11" y="570" as="targetPoint"/>
                    </mxGeometry>
                </mxCell>
                <mxCell id="57" value="Chicaner le chat" style="edgeLabel;html=1;align=center;verticalAlign=middle;resizable=0;points=[];labelBackgroundColor=none;fontSize=18;fontColor=#FFFFFF;" parent="56" vertex="1" connectable="0">
                    <mxGeometry x="-0.9243" y="3" relative="1" as="geometry">
                        <mxPoint x="63" y="3" as="offset"/>
                    </mxGeometry>
                </mxCell>
                <mxCell id="59" style="edgeStyle=orthogonalEdgeStyle;html=1;entryX=0.5;entryY=0;entryDx=0;entryDy=0;fillColor=#0050ef;strokeColor=#001DBC;strokeWidth=3;labelBackgroundColor=none;fontSize=18;fontColor=#FFFFFF;" parent="1" source="54" target="58" edge="1">
                    <mxGeometry relative="1" as="geometry"/>
                </mxCell>
                <mxCell id="60" value="Ramasser l'objet" style="edgeLabel;html=1;align=center;verticalAlign=middle;resizable=0;points=[];labelBackgroundColor=none;fontSize=18;fontColor=#FFFFFF;" parent="59" vertex="1" connectable="0">
                    <mxGeometry x="-0.1944" y="-2" relative="1" as="geometry">
                        <mxPoint as="offset"/>
                    </mxGeometry>
                </mxCell>
                <mxCell id="54" value="Il accroche &lt;br&gt;un objet qui &lt;br&gt;tombe et &lt;br style=&quot;font-size: 18px;&quot;&gt;roule vers &lt;br&gt;vous" style="rhombus;whiteSpace=wrap;html=1;rounded=1;labelBackgroundColor=none;fontSize=18;fontColor=#FFFFFF;fillColor=#4D4D4D;strokeColor=none;" parent="1" vertex="1">
                    <mxGeometry x="-667.61" y="1465" width="200" height="200" as="geometry"/>
                </mxCell>
                <mxCell id="64" style="edgeStyle=orthogonalEdgeStyle;html=1;fillColor=#0050ef;strokeColor=#001DBC;strokeWidth=3;labelBackgroundColor=none;fontSize=18;fontColor=#FFFFFF;" parent="1" source="58" target="61" edge="1">
                    <mxGeometry relative="1" as="geometry"/>
                </mxCell>
                <mxCell id="65" value="L'allumer" style="edgeLabel;html=1;align=center;verticalAlign=middle;resizable=0;points=[];labelBackgroundColor=none;fontSize=18;fontColor=#FFFFFF;" parent="64" vertex="1" connectable="0">
                    <mxGeometry x="0.2778" y="-1" relative="1" as="geometry">
                        <mxPoint x="1" y="-11" as="offset"/>
                    </mxGeometry>
                </mxCell>
                <mxCell id="58" value="Vous avez trouvé une bougie" style="rounded=1;whiteSpace=wrap;html=1;fillColor=#6d8764;fontColor=#FFFFFF;strokeColor=#3A5431;labelBackgroundColor=none;fontSize=18;" parent="1" vertex="1">
                    <mxGeometry x="-667.61" y="1710" width="200" height="90" as="geometry"/>
                </mxCell>
                <mxCell id="62" style="edgeStyle=orthogonalEdgeStyle;html=1;fillColor=#a20025;strokeColor=#6F0000;strokeWidth=3;labelBackgroundColor=none;fontSize=18;" parent="1" source="61" target="2" edge="1">
                    <mxGeometry relative="1" as="geometry">
                        <Array as="points">
                            <mxPoint x="-230" y="1960"/>
                            <mxPoint x="-230" y="595"/>
                        </Array>
                        <mxPoint x="-435.11" y="600" as="targetPoint"/>
                    </mxGeometry>
                </mxCell>
                <mxCell id="63" value="Non" style="edgeLabel;html=1;align=center;verticalAlign=middle;resizable=0;points=[];labelBackgroundColor=none;fontSize=18;fontColor=#FFFFFF;" parent="62" vertex="1" connectable="0">
                    <mxGeometry x="-0.9353" y="2" relative="1" as="geometry">
                        <mxPoint x="50" y="2" as="offset"/>
                    </mxGeometry>
                </mxCell>
                <mxCell id="75" style="edgeStyle=orthogonalEdgeStyle;html=1;entryX=0.5;entryY=0;entryDx=0;entryDy=0;fillColor=#0050ef;strokeColor=#001DBC;strokeWidth=3;labelBackgroundColor=none;fontSize=18;fontColor=#FFFFFF;" parent="1" source="61" target="74" edge="1">
                    <mxGeometry relative="1" as="geometry"/>
                </mxCell>
                <mxCell id="76" value="Oui" style="edgeLabel;html=1;align=center;verticalAlign=middle;resizable=0;points=[];labelBackgroundColor=none;fontSize=18;fontColor=#FFFFFF;" parent="75" vertex="1" connectable="0">
                    <mxGeometry x="-0.2531" y="1" relative="1" as="geometry">
                        <mxPoint x="-1" y="6" as="offset"/>
                    </mxGeometry>
                </mxCell>
                <mxCell id="61" value="Avez-vous &lt;br&gt;un briquet?" style="rhombus;whiteSpace=wrap;html=1;rounded=1;labelBackgroundColor=none;fontSize=18;fontColor=#FFFFFF;fillColor=#4D4D4D;strokeColor=none;" parent="1" vertex="1">
                    <mxGeometry x="-667.61" y="1860" width="200" height="200" as="geometry"/>
                </mxCell>
                <mxCell id="69" value="La tempête fait exploser les transformateurs, &lt;br&gt;et votre appartement prend feu" style="rounded=1;whiteSpace=wrap;html=1;fillColor=#a20025;strokeColor=#6F0000;fontColor=#FFFFFF;labelBackgroundColor=none;fontSize=18;" parent="1" vertex="1">
                    <mxGeometry x="-900.0000000000001" y="2540" width="200" height="90" as="geometry"/>
                </mxCell>
                <mxCell id="78" style="edgeStyle=orthogonalEdgeStyle;html=1;fillColor=#0050ef;strokeColor=#001DBC;strokeWidth=3;labelBackgroundColor=none;fontSize=18;fontColor=#FFFFFF;" parent="1" source="74" target="77" edge="1">
                    <mxGeometry relative="1" as="geometry"/>
                </mxCell>
                <mxCell id="74" value="Vous allumez la bougie" style="rounded=1;whiteSpace=wrap;html=1;fillColor=#008a00;strokeColor=#005700;fontColor=#FFFFFF;labelBackgroundColor=none;fontSize=18;" parent="1" vertex="1">
                    <mxGeometry x="-667.61" y="2120" width="200" height="90" as="geometry"/>
                </mxCell>
                <mxCell id="79" style="edgeStyle=orthogonalEdgeStyle;html=1;fillColor=#f0a30a;strokeColor=#BD7000;strokeWidth=3;labelBackgroundColor=none;fontSize=18;fontColor=#FFFFFF;entryX=0.5;entryY=0;entryDx=0;entryDy=0;" parent="1" source="77" target="69" edge="1">
                    <mxGeometry relative="1" as="geometry">
                        <Array as="points">
                            <mxPoint x="-800" y="2340"/>
                        </Array>
                        <mxPoint x="-875" y="2480" as="targetPoint"/>
                    </mxGeometry>
                </mxCell>
                <mxCell id="80" value="Oui" style="edgeLabel;html=1;align=center;verticalAlign=middle;resizable=0;points=[];labelBackgroundColor=none;fontSize=18;fontColor=#FFFFFF;" parent="79" vertex="1" connectable="0">
                    <mxGeometry x="-0.7752" y="-2" relative="1" as="geometry">
                        <mxPoint x="-37" y="2" as="offset"/>
                    </mxGeometry>
                </mxCell>
                <mxCell id="84" style="edgeStyle=orthogonalEdgeStyle;html=1;entryX=0.5;entryY=0;entryDx=0;entryDy=0;fillColor=#0050ef;strokeColor=#001DBC;strokeWidth=3;labelBackgroundColor=none;fontSize=18;fontColor=#FFFFFF;" parent="1" source="77" target="83" edge="1">
                    <mxGeometry relative="1" as="geometry"/>
                </mxCell>
                <mxCell id="85" value="Non" style="edgeLabel;html=1;align=center;verticalAlign=middle;resizable=0;points=[];labelBackgroundColor=none;fontSize=18;fontColor=#FFFFFF;" parent="84" vertex="1" connectable="0">
                    <mxGeometry x="-0.2" y="2" relative="1" as="geometry">
                        <mxPoint x="-57" y="2" as="offset"/>
                    </mxGeometry>
                </mxCell>
                <mxCell id="77" value="Avez- vous&lt;br style=&quot;font-size: 18px;&quot;&gt;cru l'homme?" style="rhombus;whiteSpace=wrap;html=1;rounded=1;labelBackgroundColor=none;fontSize=18;fontColor=#FFFFFF;fillColor=#4D4D4D;strokeColor=none;" parent="1" vertex="1">
                    <mxGeometry x="-667.61" y="2240" width="200" height="200" as="geometry"/>
                </mxCell>
                <mxCell id="114" value="" style="rounded=0;whiteSpace=wrap;html=1;fillColor=none;labelBackgroundColor=none;fontSize=18;fontColor=#FFFFFF;strokeColor=#FFFFFF;" parent="1" vertex="1">
                    <mxGeometry x="-1445.11" y="2030" width="350" height="590" as="geometry"/>
                </mxCell>
                <mxCell id="83" value="L'électricité revient et vous passez une &lt;br&gt;belle soirée avec &lt;br style=&quot;font-size: 18px;&quot;&gt;votre chat" style="rounded=1;whiteSpace=wrap;html=1;fillColor=#6a00ff;strokeColor=#3700CC;fontColor=#FFFFFF;labelBackgroundColor=none;fontSize=18;" parent="1" vertex="1">
                    <mxGeometry x="-430" y="2540" width="200" height="90" as="geometry"/>
                </mxCell>
                <mxCell id="87" value="" style="endArrow=none;html=1;strokeWidth=5;fillColor=#008a00;strokeColor=#005700;labelBackgroundColor=none;fontSize=18;fontColor=#FFFFFF;entryX=0.886;entryY=0.712;entryDx=0;entryDy=0;entryPerimeter=0;" parent="1" target="114" edge="1">
                    <mxGeometry width="50" height="50" relative="1" as="geometry">
                        <mxPoint x="-1245.11" y="2450" as="sourcePoint"/>
                        <mxPoint x="-1189.11" y="2450" as="targetPoint"/>
                    </mxGeometry>
                </mxCell>
                <mxCell id="105" value="Vers la clé (briquet)" style="edgeLabel;html=1;align=center;verticalAlign=middle;resizable=0;points=[];labelBackgroundColor=none;fontSize=18;fontColor=#FFFFFF;" parent="87" connectable="0" vertex="1">
                    <mxGeometry x="-0.9127" y="-1" relative="1" as="geometry">
                        <mxPoint x="-86" as="offset"/>
                    </mxGeometry>
                </mxCell>
                <mxCell id="88" value="" style="endArrow=none;html=1;strokeWidth=5;fillColor=#f0a30a;strokeColor=#BD7000;labelBackgroundColor=none;fontSize=18;fontColor=#FFFFFF;entryX=0.886;entryY=0.847;entryDx=0;entryDy=0;entryPerimeter=0;" parent="1" target="114" edge="1">
                    <mxGeometry width="50" height="50" relative="1" as="geometry">
                        <mxPoint x="-1309.11" y="2530" as="sourcePoint"/>
                        <mxPoint x="-1189.11" y="2530" as="targetPoint"/>
                    </mxGeometry>
                </mxCell>
                <mxCell id="107" value="Mauvaise fin" style="edgeLabel;html=1;align=center;verticalAlign=middle;resizable=0;points=[];labelBackgroundColor=none;fontSize=18;fontColor=#FFFFFF;" parent="88" vertex="1" connectable="0">
                    <mxGeometry x="-0.8968" y="1" relative="1" as="geometry">
                        <mxPoint x="-55" as="offset"/>
                    </mxGeometry>
                </mxCell>
                <mxCell id="89" value="" style="endArrow=none;html=1;strokeWidth=5;fillColor=#0050ef;strokeColor=#001DBC;labelBackgroundColor=none;fontSize=18;fontColor=#FFFFFF;entryX=0.886;entryY=0.779;entryDx=0;entryDy=0;entryPerimeter=0;exitX=0.343;exitY=0.779;exitDx=0;exitDy=0;exitPerimeter=0;" parent="1" source="114" target="114" edge="1">
                    <mxGeometry width="50" height="50" relative="1" as="geometry">
                        <mxPoint x="-1309.11" y="2489.88" as="sourcePoint"/>
                        <mxPoint x="-1189.11" y="2489.88" as="targetPoint"/>
                    </mxGeometry>
                </mxCell>
                <mxCell id="106" value="Bonne fin" style="edgeLabel;html=1;align=center;verticalAlign=middle;resizable=0;points=[];labelBackgroundColor=none;fontSize=18;fontColor=#FFFFFF;" parent="89" vertex="1" connectable="0">
                    <mxGeometry x="-0.9048" y="1" relative="1" as="geometry">
                        <mxPoint x="-52" y="1" as="offset"/>
                    </mxGeometry>
                </mxCell>
                <mxCell id="90" value="" style="endArrow=none;html=1;strokeWidth=5;fillColor=#a20025;strokeColor=#6F0000;labelBackgroundColor=none;fontSize=18;fontColor=#FFFFFF;entryX=0.886;entryY=0.915;entryDx=0;entryDy=0;entryPerimeter=0;" parent="1" target="114" edge="1">
                    <mxGeometry width="50" height="50" relative="1" as="geometry">
                        <mxPoint x="-1309.11" y="2570" as="sourcePoint"/>
                        <mxPoint x="-1189.11" y="2570" as="targetPoint"/>
                    </mxGeometry>
                </mxCell>
                <mxCell id="108" value="Retour/ mort" style="edgeLabel;html=1;align=center;verticalAlign=middle;resizable=0;points=[];labelBackgroundColor=none;fontSize=18;fontColor=#FFFFFF;" parent="90" vertex="1" connectable="0">
                    <mxGeometry x="-0.9206" relative="1" as="geometry">
                        <mxPoint x="-53" as="offset"/>
                    </mxGeometry>
                </mxCell>
                <mxCell id="110" value="Départ et bonne fin" style="rounded=1;whiteSpace=wrap;html=1;fillColor=#6a00ff;fontColor=#FFFFFF;strokeColor=#3700CC;labelBackgroundColor=none;fontSize=18;" parent="1" vertex="1">
                    <mxGeometry x="-1355.11" y="2150" width="170" height="50" as="geometry"/>
                </mxCell>
                <mxCell id="111" value="Clée et accès" style="rounded=1;whiteSpace=wrap;html=1;fillColor=#008a00;fontColor=#FFFFFF;strokeColor=#005700;labelBackgroundColor=none;fontSize=18;" parent="1" vertex="1">
                    <mxGeometry x="-1355.11" y="2270" width="170" height="50" as="geometry"/>
                </mxCell>
                <mxCell id="112" value="Mort" style="rounded=1;whiteSpace=wrap;html=1;fillColor=#a20025;fontColor=#FFFFFF;strokeColor=#6F0000;labelBackgroundColor=none;fontSize=18;" parent="1" vertex="1">
                    <mxGeometry x="-1355.11" y="2330" width="170" height="50" as="geometry"/>
                </mxCell>
                <mxCell id="113" value="Neutre" style="rounded=1;whiteSpace=wrap;html=1;fillColor=#6d8764;fontColor=#FFFFFF;strokeColor=#3A5431;labelBackgroundColor=none;fontSize=18;" parent="1" vertex="1">
                    <mxGeometry x="-1355.11" y="2210" width="170" height="50" as="geometry"/>
                </mxCell>
                <mxCell id="115" value="Légende" style="text;html=1;strokeColor=none;fillColor=none;align=center;verticalAlign=middle;whiteSpace=wrap;rounded=0;fontStyle=4;fontSize=18;labelBackgroundColor=none;fontColor=#FFFFFF;" parent="1" vertex="1">
                    <mxGeometry x="-1300.11" y="2060" width="60" height="30" as="geometry"/>
                </mxCell>
                <mxCell id="38" style="edgeStyle=orthogonalEdgeStyle;html=1;entryX=0;entryY=0.5;entryDx=0;entryDy=0;fillColor=#a20025;strokeColor=#6F0000;strokeWidth=3;labelBackgroundColor=none;fontSize=18;fontColor=#FFFFFF;" parent="1" source="26" target="2" edge="1">
                    <mxGeometry relative="1" as="geometry">
                        <Array as="points">
                            <mxPoint x="-1445" y="1390"/>
                            <mxPoint x="-1445" y="595"/>
                        </Array>
                    </mxGeometry>
                </mxCell>
                <mxCell id="39" value="Retourner à &lt;br&gt;l'appartement" style="edgeLabel;html=1;align=center;verticalAlign=middle;resizable=0;points=[];labelBackgroundColor=none;fontSize=18;fontColor=#FFFFFF;" parent="38" vertex="1" connectable="0">
                    <mxGeometry x="-0.8373" y="1" relative="1" as="geometry">
                        <mxPoint x="-19" y="-1" as="offset"/>
                    </mxGeometry>
                </mxCell>
                <mxCell id="120" value="" style="rounded=0;whiteSpace=wrap;html=1;fontFamily=Tahoma;fontSize=12;fillColor=none;labelBackgroundColor=none;strokeColor=#FFFFFF;" parent="1" vertex="1">
                    <mxGeometry x="-1440" y="140" width="520" height="360" as="geometry"/>
                </mxCell>
                <mxCell id="119" value="&lt;font color=&quot;#ffbb00&quot; style=&quot;font-size: 100px;&quot;&gt;&lt;b style=&quot;font-size: 100px;&quot;&gt;LA PANNE&lt;/b&gt;&lt;/font&gt;" style="text;html=1;strokeColor=none;fillColor=none;align=center;verticalAlign=middle;whiteSpace=wrap;rounded=0;fontSize=100;fontFamily=Tahoma;fontColor=#00000f;" parent="1" vertex="1">
                    <mxGeometry x="-760" y="120" width="550" height="110" as="geometry"/>
                </mxCell>
                <mxCell id="118" value="&lt;b style=&quot;font-size: 17px;&quot;&gt;&lt;u style=&quot;font-size: 17px;&quot;&gt;Genre:&lt;/u&gt; &lt;/b&gt;Suspens&lt;br style=&quot;font-size: 17px;&quot;&gt;&lt;br style=&quot;font-size: 17px;&quot;&gt;&lt;b style=&quot;font-size: 17px;&quot;&gt;&lt;u style=&quot;font-size: 17px;&quot;&gt;Inspiration:&lt;/u&gt;&lt;/b&gt; Mon chat et mon briquet&lt;br style=&quot;font-size: 17px;&quot;&gt;&lt;br style=&quot;font-size: 17px;&quot;&gt;&lt;b style=&quot;font-size: 17px;&quot;&gt;&lt;u style=&quot;font-size: 17px;&quot;&gt;Nom:&lt;/u&gt;&lt;/b&gt; La panne&lt;br style=&quot;font-size: 17px;&quot;&gt;&lt;br style=&quot;font-size: 17px;&quot;&gt;&lt;b style=&quot;font-size: 17px;&quot;&gt;&lt;u style=&quot;font-size: 17px;&quot;&gt;Palette:&lt;/u&gt;&lt;/b&gt;&lt;br style=&quot;font-size: 17px;&quot;&gt;&lt;span style=&quot;font-size: 17px;&quot;&gt;&#9;&lt;/span&gt;Couleur de fond du site: dégradé gris; #121216 , #302e3a&lt;br style=&quot;font-size: 17px;&quot;&gt;&lt;span style=&quot;font-size: 17px;&quot;&gt;&#9;&lt;/span&gt;Couleur de fond du contenu: gris; #262530&lt;br style=&quot;font-size: 17px;&quot;&gt;Couleur de la police du logo: jaune; #ffbb00&lt;br style=&quot;font-size: 17px;&quot;&gt;Couleur de la police du titre: blanc; #ffffff&lt;br style=&quot;font-size: 17px;&quot;&gt;&lt;span style=&quot;font-size: 17px;&quot;&gt;&#9;&lt;/span&gt;Couleur de la police du texte: blanc; #ffffff&lt;br style=&quot;font-size: 17px;&quot;&gt;&lt;span style=&quot;font-size: 17px;&quot;&gt;&#9;&lt;/span&gt;Couleur de fond des boutons: jaune; #ffbb00&lt;br style=&quot;font-size: 17px;&quot;&gt;&lt;span style=&quot;font-size: 17px;&quot;&gt;&#9;&lt;/span&gt;Couleur de fond des boutons en hover: blanc; #ffffff&lt;br style=&quot;font-size: 17px;&quot;&gt;&lt;span style=&quot;font-size: 17px;&quot;&gt;&#9;&lt;/span&gt;Couleur de la police des boutons: noir; #000000" style="text;html=1;strokeColor=none;fillColor=none;spacing=5;spacingTop=-20;whiteSpace=wrap;overflow=hidden;rounded=0;fontSize=17;labelBackgroundColor=none;fontColor=#FFFFFF;" parent="1" vertex="1">
                    <mxGeometry x="-1400" y="170" width="487.5" height="350" as="geometry"/>
                </mxCell>
                <mxCell id="121" value="&lt;font style=&quot;font-size: 30px;&quot;&gt;par: Melody Chiasson&lt;/font&gt;" style="text;html=1;strokeColor=none;fillColor=none;align=center;verticalAlign=middle;whiteSpace=wrap;rounded=0;fontFamily=Tahoma;fontSize=30;fontColor=#FFBB00;labelBackgroundColor=none;" parent="1" vertex="1">
                    <mxGeometry x="-540" y="220" width="320" height="70" as="geometry"/>
                </mxCell>
                <mxCell id="122" value="" style="shape=flexArrow;endArrow=classic;html=1;strokeWidth=3;fontFamily=Tahoma;fontSize=12;fontColor=#ffbb00;endWidth=27.06521739130435;endSize=7.478260869565218;labelBackgroundColor=none;width=8.75;strokeColor=#FFFFFF;" parent="1" edge="1">
                    <mxGeometry width="50" height="50" relative="1" as="geometry">
                        <mxPoint x="-567.61" y="460" as="sourcePoint"/>
                        <mxPoint x="-567.83" y="530" as="targetPoint"/>
                        <Array as="points">
                            <mxPoint x="-567.83" y="460"/>
                        </Array>
                    </mxGeometry>
                </mxCell>
                <mxCell id="126" value="&lt;font color=&quot;#ffffff&quot; style=&quot;font-size: 18px;&quot;&gt;DÉBUT&lt;/font&gt;" style="text;html=1;strokeColor=none;fillColor=none;align=center;verticalAlign=middle;whiteSpace=wrap;rounded=0;fontFamily=Tahoma;fontSize=18;fontColor=#ffbb00;fontStyle=4;labelBackgroundColor=none;" parent="1" vertex="1">
                    <mxGeometry x="-627.61" y="430" width="120" height="30" as="geometry"/>
                </mxCell>
                <mxCell id="127" value="Est-ce que vous &lt;br style=&quot;font-size: 18px;&quot;&gt;le croyez?" style="rhombus;whiteSpace=wrap;html=1;rounded=1;labelBackgroundColor=none;fontSize=18;fontColor=#FFFFFF;fillColor=#4D4D4D;strokeColor=none;" parent="1" vertex="1">
                    <mxGeometry x="-1095.1100000000001" y="1665" width="200" height="200" as="geometry"/>
                </mxCell>
                <mxCell id="132" value="BONNE FIN:&lt;br&gt;Ne pas le croire et rentrer&lt;br style=&quot;font-size: 18px;&quot;&gt;(l'homme vous donne &lt;br&gt;son briquet = clé)" style="edgeLabel;html=1;align=center;verticalAlign=middle;resizable=0;points=[];labelBackgroundColor=none;fontSize=18;fontColor=#FFFFFF;" parent="1" vertex="1" connectable="0">
                    <mxGeometry x="-1275.0042774097337" y="1765.0000000000005" as="geometry"/>
                </mxCell>
            </root>
        </mxGraphModel>
    </diagram>
</mxfile>